# xmcd CD database file
# Copyright (C) 1993-1998 Ti Kan
# 
# Track frame offsets:
#     150
#     18327
#     49165
#     59645
#     81115
#     82585
#     135905
#     170892
#     182410
#     192462
#     218725
#     244007
#     255247
#     280997
#     306012
# 
# Disc length: 4438 seconds
# 
# Revision: 1
# Processed by: cddbd v1.4b41PL1 Copyright (c) Steve Scherf et al.
# Submitted via: DiscPlay 4.0.4
# 
DISCID=c411540f
DTITLE=Teddy Pendergrass - Teddy Live! Coast To Coast
DYEAR=1900
DGENRE=
TTITLE0=Life Is A Song Worth Singing
TTITLE1=Only You
TTITLE2=Rap To Start Of Music
TTITLE3=Medley
TTITLE4=Introduction
TTITLE5=When Somebody Loves You Back
TTITLE6=Get Up, Get Down, Get Funky, Get Loose
TTITLE7=L. A. Rap
TTITLE8=Come Go With Me
TTITLE9=Close The Door
TTITLE10=Turn Off The Lights
TTITLE11=Do Me
TTITLE12=Where Did All The Lovin  Go
TTITLE13=It s You I Love
TTITLE14=Shout And Scream
EXTD=
EXTT0=
EXTT1=
EXTT2=
EXTT3=
EXTT4=
EXTT5=
EXTT6=
EXTT7=
EXTT8=
EXTT9=
EXTT10=
EXTT11=
EXTT12=
EXTT13=
EXTT14=
PLAYORDER=
